<?xml version="1.0" standalone="no"?>
<!DOCTYPE svg PUBLIC "-//W3C//DTD SVG 20010904//EN"
 "http://www.w3.org/TR/2001/REC-SVG-20010904/DTD/svg10.dtd">
<svg version="1.0" xmlns="http://www.w3.org/2000/svg"
 width="123.000000pt" height="123.000000pt" viewBox="0 0 123.000000 123.000000"
 preserveAspectRatio="xMidYMid meet">
<metadata>
Created by potrace 1.11, written by Peter Selinger 2001-2013
</metadata>
<g transform="translate(0.000000,123.000000) scale(0.100000,-0.100000)"
fill="#000000" stroke="none">
<path d="M0 1188 c0 -48 4 -47 18 5 8 30 8 37 -4 37 -10 0 -14 -12 -14 -42z"/>
<path d="M117 1148 c-36 -46 -76 -94 -91 -107 -15 -14 -26 -35 -26 -50 l0 -25
29 28 c28 27 171 220 171 231 0 19 -27 -6 -83 -77z"/>
<path d="M287 1193 c10 -21 28 -54 40 -75 12 -20 33 -67 45 -105 21 -61 23
-86 23 -260 0 -155 2 -190 13 -180 7 7 18 46 26 86 21 107 33 106 29 -1 -2
-61 0 -86 6 -73 8 19 9 19 16 2 5 -11 1 -25 -10 -37 -11 -12 -13 -20 -6 -20 6
0 50 37 96 82 127 121 175 231 175 399 0 162 -72 168 -174 15 l-26 -39 0 39
c-1 100 -49 204 -95 204 l-25 0 35 -45 c62 -82 71 -177 29 -321 -34 -118 -44
-126 -44 -33 -1 143 -48 285 -112 332 -32 24 -36 35 -11 33 10 0 19 7 21 17 3
14 -4 17 -32 17 l-36 0 17 -37z m410 -217 c-3 -50 -12 -111 -19 -136 -13 -42
-16 -45 -46 -42 -24 3 -31 0 -27 -11 3 -7 1 -26 -5 -41 -8 -22 -15 -27 -38
-24 -17 2 -31 12 -37 26 -5 12 -16 20 -22 17 -17 -6 -16 0 3 66 25 85 82 185
131 230 41 38 47 40 56 24 6 -11 7 -55 4 -109z"/>
<path d="M753 1223 c9 -2 23 -2 30 0 6 3 -1 5 -18 5 -16 0 -22 -2 -12 -5z"/>
<path d="M940 1190 c-70 -43 -84 -60 -50 -60 27 0 132 55 156 81 16 18 16 19
-12 19 -16 -1 -58 -19 -94 -40z"/>
<path d="M1179 1212 c5 -9 19 -26 30 -36 21 -19 21 -19 21 17 0 34 -2 37 -30
37 -26 0 -29 -3 -21 -18z"/>
<path d="M0 780 c0 -60 4 -90 9 -81 7 12 19 5 59 -30 60 -54 163 -107 224
-115 58 -8 72 10 21 27 -65 20 -155 69 -219 117 -60 46 -62 48 -66 100 -3 29
-10 58 -16 64 -9 9 -12 -11 -12 -82z"/>
<path d="M590 591 c-49 -26 -115 -81 -97 -81 19 0 197 90 197 99 0 19 -43 11
-100 -18z"/>
<path d="M0 521 c0 -52 157 -62 258 -16 76 34 77 43 1 13 -76 -30 -172 -30
-221 -1 -36 21 -38 21 -38 4z"/>
<path d="M397 507 c-3 -7 -1 -33 4 -58 11 -59 11 -58 -10 -52 -18 5 -36 -20
-26 -37 8 -12 -32 -42 -52 -38 -14 3 -18 12 -17 41 1 20 -3 34 -7 31 -20 -12
-7 26 21 64 17 23 28 42 24 42 -17 0 -45 -24 -63 -54 l-21 -34 -51 19 c-59 23
-59 11 1 -16 30 -14 39 -22 34 -34 -4 -9 -9 -41 -11 -71 -4 -46 -1 -60 17 -82
23 -30 56 -36 91 -18 16 9 21 7 31 -14 13 -31 38 -40 82 -32 l33 6 7 -61 c12
-124 53 -120 164 15 49 59 67 75 101 83 29 8 43 8 50 -1 5 -6 24 -56 42 -111
18 -55 34 -94 37 -87 4 14 -33 131 -58 182 -10 19 -18 40 -19 45 0 6 -18 11
-39 13 -36 3 -43 -2 -129 -89 -50 -50 -95 -89 -100 -86 -9 6 -19 44 -58 232
-8 39 -12 80 -9 93 5 15 3 22 -6 20 -7 -2 -18 17 -26 44 -15 50 -29 66 -37 45z
m55 -245 c24 -64 23 -72 -12 -72 -23 0 -33 7 -45 30 -14 28 -14 32 7 64 13 19
25 32 28 30 2 -3 12 -26 22 -52z"/>
<path d="M1007 443 c-11 -11 -8 -23 6 -23 29 0 -2 -119 -60 -237 -53 -107 -69
-171 -26 -103 15 23 40 41 89 62 126 54 108 59 161 -45 31 -62 48 -86 51 -73
2 10 -5 30 -15 45 -11 14 -33 56 -51 94 -17 37 -37 67 -44 67 -7 0 -41 -16
-76 -34 l-63 -34 22 36 c23 39 43 107 54 185 5 30 12 47 21 47 8 0 14 5 14 10
0 11 -73 14 -83 3z"/>
<path d="M730 434 c0 -3 14 -19 31 -35 24 -23 30 -34 25 -54 -7 -27 3 -32 22
-13 18 18 14 73 -6 91 -17 16 -72 24 -72 11z"/>
<path d="M685 319 c-22 -20 -35 -40 -35 -56 0 -23 2 -22 50 19 27 24 50 49 50
56 0 21 -28 13 -65 -19z"/>
</g>
</svg>
